<?xml version="1.0" standalone="no"?>
<!DOCTYPE svg PUBLIC "-//W3C//DTD SVG 20010904//EN"
 "http://www.w3.org/TR/2001/REC-SVG-20010904/DTD/svg10.dtd">
<svg version="1.0" xmlns="http://www.w3.org/2000/svg"
 width="144.000000pt" height="144.000000pt" viewBox="0 0 144.000000 144.000000"
 preserveAspectRatio="xMidYMid meet">
<metadata>
Created by potrace 1.15, written by Peter Selinger 2001-2017
</metadata>
<g transform="translate(0.000000,144.000000) scale(0.100000,-0.100000)"
fill="#000000" stroke="none">
<path d="M561 1310 c-208 -55 -382 -233 -436 -445 -19 -76 -19 -214 0 -290 54
-214 229 -391 440 -445 213 -55 431 5 586 159 79 80 132 171 159 276 55 213
-5 431 -159 586 -155 154 -377 214 -590 159z m294 -85 c86 -23 166 -70 233
-137 205 -204 205 -532 0 -736 -101 -102 -223 -152 -368 -152 -236 0 -437 152
-504 379 -21 71 -21 211 0 282 51 174 195 317 365 363 72 19 201 20 274 1z"/>
<path d="M550 887 l0 -73 45 -44 c25 -24 45 -49 45 -54 0 -6 -39 -50 -87 -98
l-88 -88 76 0 75 0 49 50 c27 28 54 50 60 50 6 0 48 -38 95 -85 47 -47 88 -85
92 -85 5 0 8 31 8 68 l0 68 -55 54 c-30 30 -55 59 -55 65 0 6 38 49 85 94 47
46 85 85 85 87 0 2 -33 4 -73 4 l-73 0 -49 -50 c-27 -27 -54 -50 -60 -50 -7 0
-47 36 -89 80 -43 44 -80 80 -82 80 -2 0 -4 -33 -4 -73z"/>
</g>
</svg>
